<svg xmlns="http://www.w3.org/2000/svg" width="20.972" height="20.578" viewBox="0 0 20.972 20.578">
  <g id="Iconly_Two-tone_Calling" data-name="Iconly/Two-tone/Calling" transform="translate(0.75 0.828)">
    <g id="Calling" transform="translate(0 0)">
      <path id="Stroke_1" data-name="Stroke 1" d="M0,0A7.969,7.969,0,0,1,7.04,7.032" transform="translate(12.353 0)" fill="none" stroke="#fa6400" stroke-linecap="round" stroke-linejoin="round" stroke-miterlimit="10" stroke-width="1.5"/>
      <path id="Stroke_3" data-name="Stroke 3" d="M0,0A4.426,4.426,0,0,1,3.5,3.5" transform="translate(12.353 3.543)" fill="none" stroke="#fa6400" stroke-linecap="round" stroke-linejoin="round" stroke-miterlimit="10" stroke-width="1.5"/>
      <path id="Stroke_5" data-name="Stroke 5" d="M9.032,9.972c3.989,3.988,4.894-.626,7.434,1.912,2.449,2.448,3.857,2.938.754,6.04-.389.312-2.858,4.07-11.534-4.605S.762,2.172,1.074,1.784c3.11-3.11,3.593-1.695,6.041.753C9.654,5.076,5.043,5.984,9.032,9.972Z" fill="none" stroke="#000" stroke-linecap="round" stroke-linejoin="round" stroke-miterlimit="10" stroke-width="1.5"/>
    </g>
  </g>
</svg>
