<svg xmlns="http://www.w3.org/2000/svg" width="20" height="20" viewBox="0 0 20 20">
  <g id="Iconly_Two-tone_Password" data-name="Iconly/Two-tone/Password" transform="translate(0.75 0.75)">
    <g id="Password" transform="translate(-0.75 -0.75)">
      <path id="Stroke_1" data-name="Stroke 1" d="M13.584,0H4.915C1.894,0,0,2.139,0,5.166v8.168C0,16.361,1.885,18.5,4.915,18.5h8.668a4.862,4.862,0,0,0,3.87-1.774A5.244,5.244,0,0,0,18.5,13.334V5.166C18.5,2.139,16.614,0,13.584,0Z" transform="translate(0.75 0.75)" fill="none" stroke="#000" stroke-linecap="round" stroke-linejoin="round" stroke-miterlimit="10" stroke-width="1.5"/>
      <path id="Stroke_3" data-name="Stroke 3" d="M3.7,1.852A1.852,1.852,0,1,1,1.851,0,1.852,1.852,0,0,1,3.7,1.852Z" transform="translate(4.989 8.148)" fill="none" stroke="#fa6400" stroke-linecap="round" stroke-linejoin="round" stroke-miterlimit="10" stroke-width="1.5"/>
      <path id="Stroke_5" data-name="Stroke 5" d="M0,0H6.318V1.852" transform="translate(8.692 10)" fill="none" stroke="#fa6400" stroke-linecap="round" stroke-linejoin="round" stroke-miterlimit="10" stroke-width="1.5"/>
      <path id="Stroke_7" data-name="Stroke 7" d="M.5,1.852V0" transform="translate(11.682 10)" fill="none" stroke="#fa6400" stroke-linecap="round" stroke-linejoin="round" stroke-miterlimit="10" stroke-width="1.5"/>
    </g>
  </g>
</svg>
